# xmcd
#
# Track frame offsets:
#	150
#	15950
#	35400
#	53487
#	67875
#	85887
#	105225
#	119825
#	138087
#	153692
#	167937
#	190587
#	209087
#	226475
#
# Disc length: 3253 seconds
#
# Revision: 0
# Processed by: cddbd v1.5.2PL0 Copyright (c) Steve Scherf et al.
# Submitted via: audiograbber 1.83.01
#
DISCID=b40cb30e
DTITLE=新格文化 - 金韻民歌經典系列8失愛印記
DYEAR=1990
DGENRE=Other
TTITLE0=王海玲 - 偈
TTITLE1=周秉鈞楊海薇 - 我深愛過
TTITLE2=王夢麟 - 離開你走近你
TTITLE3=鄭怡 - 告別夕陽
TTITLE4=張清芳 - 是誰留下寂寞
TTITLE5=姚黛瑋 - 我的孤獨
TTITLE6=張清芳 - 也許\有著那麼一天
TTITLE7=江明學 - 如果真有來生
TTITLE8=林瓊瓏 - 堆積
TTITLE9=王新蓮 - 匆匆的走過
TTITLE10=娃娃 - 飛鳥
TTITLE11=鄭人文 - 請擁抱我
TTITLE12=陶恩惠 - 如果能再
TTITLE13=鄭人文 - 無法抗拒的愛
EXTD=
EXTT0=
EXTT1=
EXTT2=
EXTT3=
EXTT4=
EXTT5=
EXTT6=
EXTT7=
EXTT8=
EXTT9=
EXTT10=
EXTT11=
EXTT12=
EXTT13=
PLAYORDER=
